<svg width="182" height="70" viewBox="0 0 182 70" fill="none" xmlns="http://www.w3.org/2000/svg">
<g filter="url(#filter0_d_603_35)">
<path d="M19.2416 32V31.26L21.1816 30.8V17.86H17.5216L16.7416 20.78H15.7016V17H28.8216V20.78H27.7816L27.0016 17.86H23.2816V30.82L25.3216 31.26V32H19.2416ZM30.338 17H33.578V24.74C34.0313 23.0067 35.1713 22.14 36.998 22.14C38.0246 22.14 38.8246 22.44 39.398 23.04C39.9713 23.6267 40.258 24.5 40.258 25.66V30.84L41.718 31.26V32H36.978V31.26L38.358 30.84V25.7C38.358 24.7667 38.2113 24.1 37.918 23.7C37.6246 23.3 37.1713 23.1 36.558 23.1C35.6113 23.1 34.878 23.5333 34.358 24.4C33.838 25.2667 33.578 26.5867 33.578 28.36V30.86L34.958 31.26V32H30.218V31.26L31.678 30.82V17.96L30.338 17.72V17ZM51.6756 28.62V30.9C50.9156 31.7667 49.689 32.2 47.9956 32.2C46.3156 32.2 45.069 31.76 44.2556 30.88C43.4423 29.9867 43.0356 28.7533 43.0356 27.18C43.0356 25.6067 43.4623 24.3733 44.3156 23.48C45.1823 22.5733 46.3423 22.12 47.7956 22.12C48.6623 22.12 49.3823 22.28 49.9556 22.6C50.5423 22.92 50.9623 23.3467 51.2156 23.88C51.6156 24.76 51.8156 25.6867 51.8156 26.66H45.0356C45.0356 28.1667 45.209 29.3133 45.5556 30.1C45.9556 30.9933 46.7423 31.44 47.9156 31.44C48.329 31.44 48.7223 31.3867 49.0956 31.28C49.4823 31.16 49.7623 31.0467 49.9356 30.94C50.109 30.8333 50.1956 30.7667 50.1956 30.74L50.9356 28.62H51.6756ZM47.7556 22.9C46.6223 22.9 45.849 23.42 45.4356 24.46C45.2356 24.9267 45.1156 25.44 45.0756 26H50.0756C50.0756 23.9333 49.3023 22.9 47.7556 22.9ZM69.9163 32V31.26L71.8763 30.82V24.8H64.5563V30.82L66.5563 31.26V32H60.4563V31.26L62.4563 30.82V18.22L60.4563 17.74V17H66.5563V17.74L64.5563 18.22V23.9H71.8763V18.22L69.9163 17.74V17H75.9963V17.74L73.9763 18.2V30.8L75.9963 31.26V32H69.9163ZM78.7969 32V31.26L80.5769 30.82L86.6369 16.84H87.6569L93.4169 30.82L95.0969 31.26V32H89.4169V31.26L91.1569 30.84L89.5769 26.96H83.5369L82.0369 30.84L83.8369 31.26V32H78.7969ZM83.8169 26.2H89.2969L86.4969 19.18L83.8169 26.2ZM110.998 32V31.26L112.958 30.8V18.24L107.518 32H106.298L100.858 18.24V30.8L102.858 31.26V32H97.8977V31.26L99.8177 30.8V18.26L98.1177 17.74V17H102.418L107.478 29.52L112.398 17H117.118V17.74L115.038 18.22V30.8L117.078 31.26V32H110.998ZM120.71 17H126.79V17.74L124.81 18.2V31.12H129.93L130.71 28.22H131.75V32H120.71V31.26L122.71 30.8V18.22L120.71 17.74V17ZM134.753 17H145.773V20.58H144.733L143.953 17.86H138.833V23.84H142.693L143.233 22.1H143.973V26.24H143.233L142.693 24.72H138.833V31.14H144.313L145.093 28.44H146.153V32H134.753V31.26L136.733 30.8V18.22L134.753 17.74V17ZM151.097 32V31.26L153.037 30.8V17.86H149.377L148.597 20.78H147.557V17H160.677V20.78H159.637L158.857 17.86H155.137V30.82L157.177 31.26V32H151.097ZM15.415 53.165C14.635 53.165 14.035 52.99 13.615 52.64C13.195 52.28 12.985 51.825 12.985 51.275C12.985 50.905 13.075 50.575 13.255 50.285C13.435 49.985 13.68 49.735 13.99 49.535C14.31 49.325 14.68 49.165 15.1 49.055C15.52 48.945 15.965 48.89 16.435 48.89C16.605 48.89 16.775 48.895 16.945 48.905C17.125 48.905 17.31 48.915 17.5 48.935C17.7 48.945 17.905 48.965 18.115 48.995L18.145 49.82C17.965 49.79 17.78 49.77 17.59 49.76C17.41 49.74 17.23 49.725 17.05 49.715C16.87 49.705 16.695 49.7 16.525 49.7C16.165 49.7 15.835 49.73 15.535 49.79C15.235 49.85 14.975 49.94 14.755 50.06C14.535 50.18 14.365 50.335 14.245 50.525C14.125 50.715 14.065 50.945 14.065 51.215C14.065 51.425 14.1 51.605 14.17 51.755C14.25 51.895 14.355 52.01 14.485 52.1C14.615 52.18 14.765 52.24 14.935 52.28C15.115 52.32 15.31 52.34 15.52 52.34C15.91 52.34 16.255 52.28 16.555 52.16C16.865 52.03 17.125 51.845 17.335 51.605C17.555 51.365 17.72 51.07 17.83 50.72C17.94 50.37 17.995 49.97 17.995 49.52C17.995 48.84 17.915 48.31 17.755 47.93C17.595 47.55 17.355 47.28 17.035 47.12C16.725 46.96 16.325 46.88 15.835 46.88C15.505 46.88 15.18 46.945 14.86 47.075C14.54 47.195 14.25 47.385 13.99 47.645L13.465 46.955C13.785 46.635 14.155 46.395 14.575 46.235C14.995 46.075 15.44 45.995 15.91 45.995C16.36 45.995 16.77 46.05 17.14 46.16C17.51 46.27 17.825 46.455 18.085 46.715C18.355 46.965 18.56 47.305 18.7 47.735C18.85 48.165 18.925 48.705 18.925 49.355V53H17.755V51.95C17.625 52.2 17.465 52.405 17.275 52.565C17.095 52.725 16.9 52.85 16.69 52.94C16.48 53.02 16.265 53.075 16.045 53.105C15.825 53.145 15.615 53.165 15.415 53.165ZM24.235 53.105C23.795 53.105 23.435 53.03 23.155 52.88C22.875 52.73 22.66 52.5 22.51 52.19C22.36 51.87 22.26 51.47 22.21 50.99C22.17 50.51 22.16 49.94 22.18 49.28L22.36 44.39L23.485 44.255L23.635 44.24L23.65 44.345C23.6 44.415 23.555 44.485 23.515 44.555C23.485 44.625 23.46 44.745 23.44 44.915L23.305 46.61L23.35 46.88L23.245 49.355C23.215 50.115 23.235 50.705 23.305 51.125C23.375 51.535 23.5 51.82 23.68 51.98C23.86 52.13 24.1 52.205 24.4 52.205C24.73 52.205 25.02 52.14 25.27 52.01C25.53 51.88 25.8 51.715 26.08 51.515L26.41 52.37C26.07 52.62 25.72 52.805 25.36 52.925C25 53.045 24.625 53.105 24.235 53.105ZM20.8 46.145H25.735V47.03H20.8V46.145ZM35.5 43.655H36.58H36.73V43.76C36.67 43.82 36.63 43.885 36.61 43.955C36.6 44.025 36.595 44.145 36.595 44.315V47.645H40.255V43.655H41.335H41.485V43.76C41.425 43.82 41.385 43.885 41.365 43.955C41.355 44.025 41.35 44.145 41.35 44.315V53H40.24V48.545H36.595V53H35.5V43.655ZM43.135 53V43.64H48.865V44.57H44.125V47.645H48.04V48.605H44.125V52.07H48.82V53H43.135ZM55.105 50.27H51.715L51.925 49.46H54.865L55.105 50.27ZM53.485 45.89L51.025 53H49.99L53.44 43.49H53.56L57.01 53H55.93L53.485 45.89ZM58.09 53V43.655H60.85C61.59 43.655 62.185 43.765 62.635 43.985C63.095 44.205 63.43 44.515 63.64 44.915C63.85 45.315 63.955 45.785 63.955 46.325C63.955 46.675 63.875 47.025 63.715 47.375C63.565 47.725 63.345 48.03 63.055 48.29C62.775 48.55 62.44 48.73 62.05 48.83L64.21 53H63.04L60.97 48.875H59.155V53H58.09ZM59.155 47.945H60.97C61.64 47.945 62.125 47.8 62.425 47.51C62.725 47.21 62.875 46.815 62.875 46.325C62.875 46.015 62.81 45.735 62.68 45.485C62.55 45.225 62.345 45.02 62.065 44.87C61.785 44.72 61.42 44.645 60.97 44.645H59.155V47.945ZM67.87 53V44.585H65.215V43.64H71.695V44.585H68.935V53H67.87ZM73 43.655H74.08H74.23V43.76C74.17 43.82 74.13 43.885 74.11 43.955C74.1 44.025 74.095 44.145 74.095 44.315V47.645H77.755V43.655H78.835H78.985V43.76C78.925 43.82 78.885 43.885 78.865 43.955C78.855 44.025 78.85 44.145 78.85 44.315V53H77.74V48.545H74.095V53H73V43.655ZM83.455 53.15C82.845 53.15 82.295 53.05 81.805 52.85C81.325 52.65 80.9 52.355 80.53 51.965L81.07 51.02L81.13 50.885L81.235 50.945C81.255 51.015 81.28 51.095 81.31 51.185C81.34 51.265 81.41 51.365 81.52 51.485C81.78 51.705 82.08 51.88 82.42 52.01C82.77 52.14 83.165 52.205 83.605 52.205C83.885 52.205 84.14 52.165 84.37 52.085C84.61 51.995 84.815 51.88 84.985 51.74C85.165 51.59 85.3 51.42 85.39 51.23C85.49 51.03 85.54 50.82 85.54 50.6C85.54 50.43 85.52 50.275 85.48 50.135C85.45 49.995 85.385 49.87 85.285 49.76C85.195 49.64 85.07 49.525 84.91 49.415C84.75 49.295 84.545 49.17 84.295 49.04C84.045 48.91 83.745 48.77 83.395 48.62C82.745 48.37 82.23 48.1 81.85 47.81C81.48 47.51 81.215 47.195 81.055 46.865C80.905 46.535 80.83 46.195 80.83 45.845C80.83 45.385 80.945 44.985 81.175 44.645C81.405 44.295 81.73 44.025 82.15 43.835C82.58 43.635 83.09 43.535 83.68 43.535C84.02 43.535 84.345 43.585 84.655 43.685C84.975 43.775 85.27 43.905 85.54 44.075C85.82 44.245 86.065 44.455 86.275 44.705L85.69 45.485L85.6 45.605L85.51 45.545C85.5 45.465 85.48 45.385 85.45 45.305C85.42 45.225 85.35 45.125 85.24 45.005C85 44.775 84.745 44.62 84.475 44.54C84.205 44.45 83.885 44.405 83.515 44.405C83.265 44.405 83.04 44.44 82.84 44.51C82.65 44.58 82.485 44.68 82.345 44.81C82.205 44.94 82.095 45.09 82.015 45.26C81.945 45.42 81.91 45.59 81.91 45.77C81.91 45.94 81.93 46.095 81.97 46.235C82.01 46.375 82.08 46.51 82.18 46.64C82.28 46.77 82.415 46.9 82.585 47.03C82.765 47.16 82.985 47.29 83.245 47.42C83.515 47.55 83.84 47.69 84.22 47.84C84.68 48.03 85.06 48.22 85.36 48.41C85.67 48.59 85.91 48.785 86.08 48.995C86.26 49.195 86.385 49.415 86.455 49.655C86.535 49.895 86.575 50.16 86.575 50.45C86.575 50.88 86.465 51.305 86.245 51.725C86.035 52.135 85.7 52.475 85.24 52.745C84.78 53.015 84.185 53.15 83.455 53.15ZM90.37 53V44.585H87.715V43.64H94.195V44.585H91.435V53H90.37ZM98.5 53.165C97.79 53.165 97.185 52.98 96.685 52.61C96.185 52.24 95.805 51.7 95.545 50.99C95.285 50.27 95.155 49.4 95.155 48.38C95.155 47.39 95.285 46.54 95.545 45.83C95.805 45.11 96.185 44.56 96.685 44.18C97.185 43.79 97.79 43.595 98.5 43.595C99.22 43.595 99.825 43.79 100.315 44.18C100.815 44.56 101.195 45.11 101.455 45.83C101.715 46.54 101.845 47.39 101.845 48.38C101.845 49.4 101.715 50.27 101.455 50.99C101.195 51.7 100.815 52.24 100.315 52.61C99.825 52.98 99.22 53.165 98.5 53.165ZM98.5 52.25C98.98 52.25 99.385 52.1 99.715 51.8C100.055 51.5 100.315 51.065 100.495 50.495C100.675 49.915 100.765 49.21 100.765 48.38C100.765 47.59 100.675 46.91 100.495 46.34C100.315 45.76 100.055 45.31 99.715 44.99C99.385 44.67 98.98 44.51 98.5 44.51C98.03 44.51 97.625 44.67 97.285 44.99C96.945 45.31 96.685 45.76 96.505 46.34C96.325 46.91 96.235 47.59 96.235 48.38C96.235 49.21 96.325 49.915 96.505 50.495C96.685 51.065 96.945 51.5 97.285 51.8C97.625 52.1 98.03 52.25 98.5 52.25ZM103 43.655H104.02L107.95 50.585V43.655H108.94H109.09V43.76C109.03 43.82 108.99 43.885 108.97 43.955C108.96 44.025 108.955 44.145 108.955 44.315V53H108.13L104.005 45.65V53H103V43.655ZM110.635 53V43.64H116.365V44.57H111.625V47.645H115.54V48.605H111.625V52.07H116.32V53H110.635ZM125.635 53V43.655H128.635C129.335 43.655 129.9 43.775 130.33 44.015C130.76 44.255 131.075 44.575 131.275 44.975C131.485 45.365 131.59 45.805 131.59 46.295C131.59 46.655 131.535 46.99 131.425 47.3C131.315 47.61 131.14 47.885 130.9 48.125C130.67 48.365 130.375 48.55 130.015 48.68C129.655 48.81 129.22 48.875 128.71 48.875H126.715V53H125.635ZM126.715 47.945H128.59C129.05 47.945 129.42 47.88 129.7 47.75C129.98 47.61 130.185 47.42 130.315 47.18C130.445 46.93 130.51 46.645 130.51 46.325C130.51 46.015 130.445 45.735 130.315 45.485C130.185 45.235 129.98 45.035 129.7 44.885C129.42 44.725 129.055 44.645 128.605 44.645H126.715V47.945ZM136 53.12C135.38 53.12 134.83 52.97 134.35 52.67C133.88 52.36 133.51 51.94 133.24 51.41C132.97 50.87 132.835 50.255 132.835 49.565C132.835 48.865 132.97 48.25 133.24 47.72C133.51 47.18 133.88 46.76 134.35 46.46C134.83 46.15 135.38 45.995 136 45.995C136.62 45.995 137.165 46.15 137.635 46.46C138.115 46.76 138.49 47.18 138.76 47.72C139.03 48.25 139.165 48.865 139.165 49.565C139.165 50.255 139.03 50.87 138.76 51.41C138.49 51.94 138.115 52.36 137.635 52.67C137.165 52.97 136.62 53.12 136 53.12ZM136 52.22C136.4 52.22 136.75 52.105 137.05 51.875C137.35 51.645 137.585 51.33 137.755 50.93C137.935 50.53 138.025 50.07 138.025 49.55C138.025 49.03 137.935 48.57 137.755 48.17C137.585 47.77 137.35 47.46 137.05 47.24C136.75 47.01 136.4 46.895 136 46.895C135.61 46.895 135.26 47.01 134.95 47.24C134.65 47.46 134.41 47.77 134.23 48.17C134.06 48.57 133.975 49.03 133.975 49.55C133.975 50.07 134.06 50.53 134.23 50.93C134.41 51.33 134.65 51.645 134.95 51.875C135.26 52.105 135.61 52.22 136 52.22ZM141.25 53V52.13H143.005V47.015H141.34V46.145H144.085V52.13H145.69V53H141.25ZM143.485 44.705C143.275 44.705 143.095 44.63 142.945 44.48C142.795 44.33 142.72 44.15 142.72 43.94C142.72 43.72 142.79 43.535 142.93 43.385C143.08 43.235 143.265 43.16 143.485 43.16C143.695 43.16 143.875 43.24 144.025 43.4C144.185 43.55 144.265 43.73 144.265 43.94C144.265 44.15 144.185 44.33 144.025 44.48C143.875 44.63 143.695 44.705 143.485 44.705ZM148.33 53V46.145H149.38V47.36C149.56 47.08 149.77 46.84 150.01 46.64C150.25 46.43 150.515 46.27 150.805 46.16C151.095 46.04 151.395 45.98 151.705 45.98C152.085 45.98 152.425 46.075 152.725 46.265C153.025 46.455 153.265 46.76 153.445 47.18C153.625 47.6 153.715 48.155 153.715 48.845V53H152.665V48.875C152.665 48.395 152.61 48.015 152.5 47.735C152.39 47.445 152.24 47.24 152.05 47.12C151.86 46.99 151.645 46.925 151.405 46.925C151.175 46.925 150.94 46.975 150.7 47.075C150.47 47.175 150.255 47.32 150.055 47.51C149.855 47.69 149.69 47.91 149.56 48.17C149.44 48.43 149.38 48.725 149.38 49.055V53H148.33ZM159.235 53.105C158.795 53.105 158.435 53.03 158.155 52.88C157.875 52.73 157.66 52.5 157.51 52.19C157.36 51.87 157.26 51.47 157.21 50.99C157.17 50.51 157.16 49.94 157.18 49.28L157.36 44.39L158.485 44.255L158.635 44.24L158.65 44.345C158.6 44.415 158.555 44.485 158.515 44.555C158.485 44.625 158.46 44.745 158.44 44.915L158.305 46.61L158.35 46.88L158.245 49.355C158.215 50.115 158.235 50.705 158.305 51.125C158.375 51.535 158.5 51.82 158.68 51.98C158.86 52.13 159.1 52.205 159.4 52.205C159.73 52.205 160.02 52.14 160.27 52.01C160.53 51.88 160.8 51.715 161.08 51.515L161.41 52.37C161.07 52.62 160.72 52.805 160.36 52.925C160 53.045 159.625 53.105 159.235 53.105ZM155.8 46.145H160.735V47.03H155.8V46.145ZM166.33 53.15C165.83 53.15 165.375 53.075 164.965 52.925C164.555 52.765 164.2 52.535 163.9 52.235C163.61 51.935 163.385 51.565 163.225 51.125C163.065 50.675 162.985 50.165 162.985 49.595C162.985 49.015 163.065 48.5 163.225 48.05C163.395 47.6 163.62 47.225 163.9 46.925C164.19 46.615 164.525 46.38 164.905 46.22C165.295 46.06 165.705 45.98 166.135 45.98C166.525 45.98 166.89 46.045 167.23 46.175C167.57 46.305 167.865 46.505 168.115 46.775C168.365 47.035 168.56 47.37 168.7 47.78C168.85 48.19 168.925 48.675 168.925 49.235C168.925 49.315 168.92 49.4 168.91 49.49C168.91 49.57 168.905 49.65 168.895 49.73H164.02C164.04 50.17 164.115 50.555 164.245 50.885C164.375 51.205 164.545 51.47 164.755 51.68C164.965 51.88 165.205 52.03 165.475 52.13C165.755 52.23 166.05 52.28 166.36 52.28C166.6 52.28 166.825 52.255 167.035 52.205C167.245 52.145 167.44 52.06 167.62 51.95C167.81 51.83 167.98 51.685 168.13 51.515L168.73 52.1C168.54 52.33 168.32 52.525 168.07 52.685C167.83 52.845 167.565 52.96 167.275 53.03C166.985 53.11 166.67 53.15 166.33 53.15ZM164.065 48.89H167.83C167.83 48.57 167.785 48.285 167.695 48.035C167.615 47.775 167.495 47.555 167.335 47.375C167.185 47.185 167 47.045 166.78 46.955C166.57 46.855 166.33 46.805 166.06 46.805C165.82 46.805 165.59 46.845 165.37 46.925C165.16 47.005 164.965 47.135 164.785 47.315C164.605 47.485 164.45 47.7 164.32 47.96C164.2 48.22 164.115 48.53 164.065 48.89Z" fill="white"/>
</g>
<rect x="0.5" y="0.5" width="181" height="69" stroke="white"/>
<defs>
<filter id="filter0_d_603_35" x="8.98499" y="16.84" width="163.94" height="44.3251" filterUnits="userSpaceOnUse" color-interpolation-filters="sRGB">
<feFlood flood-opacity="0" result="BackgroundImageFix"/>
<feColorMatrix in="SourceAlpha" type="matrix" values="0 0 0 0 0 0 0 0 0 0 0 0 0 0 0 0 0 0 127 0" result="hardAlpha"/>
<feOffset dy="4"/>
<feGaussianBlur stdDeviation="2"/>
<feComposite in2="hardAlpha" operator="out"/>
<feColorMatrix type="matrix" values="0 0 0 0 0 0 0 0 0 0 0 0 0 0 0 0 0 0 0.25 0"/>
<feBlend mode="normal" in2="BackgroundImageFix" result="effect1_dropShadow_603_35"/>
<feBlend mode="normal" in="SourceGraphic" in2="effect1_dropShadow_603_35" result="shape"/>
</filter>
</defs>
</svg>
